<svg version="1.1" xmlns="http://www.w3.org/2000/svg" style="display: block;" viewBox="0 0 2048 2048" width="1024" height="1024">
<path transform="translate(0,0)" fill="rgb(24,24,23)" d="M 996.696 90.2262 C 1512.99 75.1916 1943.6 481.776 1958.19 998.08 C 1972.79 1514.38 1565.84 1944.65 1049.52 1958.8 C 533.825 1972.95 104.191 1566.59 89.6126 1050.91 C 75.034 535.222 481.025 105.243 996.696 90.2262 z"/>
<path transform="translate(0,0)" fill="rgb(255,255,255)" d="M 995.006 128.668 C 1489.79 112.801 1903.76 501.033 1919.65 995.82 C 1935.53 1490.61 1547.31 1904.59 1052.53 1920.49 C 557.718 1936.39 143.71 1548.15 127.825 1053.34 C 111.941 558.532 500.195 144.536 995.006 128.668 z"/>
<path transform="translate(0,0)" fill="rgb(24,24,23)" d="M 512.746 398.406 C 544.885 393.684 576.879 387.817 608.965 382.718 C 626.949 379.861 651.118 377.916 668.132 372.351 C 686.302 366.408 703.886 355.485 721.436 347.702 C 755.573 332.639 790.796 320.17 826.807 310.401 C 1045.86 249.684 1280.67 293.163 1463.46 428.291 C 1505.51 459.484 1544.21 494.953 1578.95 534.128 C 1668.71 636.887 1733.16 772.275 1752.91 907.524 C 1753.35 910.547 1753.71 913.591 1754.3 916.588 C 1736.79 928.615 1718.7 939.667 1701.79 952.553 C 1708.39 939.305 1718.18 922.005 1712.77 906.918 C 1711.65 903.8 1709.84 900.902 1706.73 899.443 C 1703.81 898.076 1700.53 898.432 1697.66 899.701 C 1689 903.539 1683.26 914.052 1680.37 922.593 C 1675.61 936.695 1677.49 949.542 1679.63 963.889 C 1668.53 951.546 1648.5 930.446 1630.86 929.768 C 1627.96 929.657 1624.95 930.164 1622.65 932.087 C 1620.58 933.827 1619.96 936.078 1619.89 938.691 C 1619.73 944.278 1624.64 950.447 1628.58 953.898 C 1636.79 961.098 1647.38 963.624 1657.64 966.422 C 1402.83 997.488 1148.19 1029.93 893.723 1063.74 L 683.471 1091.01 C 644.322 1096.17 604.866 1103.13 565.492 1105.81 C 570.687 1103.24 580.846 1100.3 583.116 1094.87 C 584.559 1091.42 583.761 1084.71 582.29 1081.38 C 581.382 1079.33 579.535 1078.47 577.476 1077.96 C 561.595 1074.02 492.787 1083.96 470.96 1085.46 C 430.907 1088.23 389.181 1089.4 349.323 1083.66 L 350.533 1083.39 C 365.099 1080.26 380.213 1079.37 394.93 1076.94 C 434.444 1070.41 478.396 1060.59 513.967 1041.73 C 527.206 1034.71 539.267 1025.95 551.344 1017.15 C 512.579 1023.35 473.899 1030.36 434.954 1035.36 C 384.777 1041.39 334.343 1045.04 283.821 1046.3 C 282.996 1016.81 282.892 987.533 285.198 958.097 C 294.393 848.842 328.692 743.185 385.422 649.361 C 397.256 629.74 409.454 609.745 423.259 591.439 C 420.433 560.529 415.418 529.463 410.512 498.809 C 408.497 481.522 406.31 464.256 403.951 447.013 C 402.908 440.19 399.274 426.597 403.267 420.39 C 405.143 417.475 431.588 413.803 436.787 412.501 C 447.155 411.29 457.849 408.255 468.129 406.146 C 482.92 403.118 497.799 400.537 512.746 398.406 z"/>
<path transform="translate(0,0)" fill="rgb(255,255,255)" d="M 969.999 358.38 C 970.892 358.21 972.693 357.824 973.563 357.856 C 978.848 358.05 984.517 371.862 987.319 375.927 C 1004.86 401.377 1033.8 410.399 1062.64 415.26 C 1073.3 479.683 1082.52 544.418 1092.49 608.962 C 1100.61 661.438 1109.75 713.953 1116.48 766.615 C 1103.91 769.682 1092.49 774.251 1081.93 781.864 C 1062.81 795.648 1053.77 813.452 1050.07 836.342 C 895.062 858.839 739.749 879.172 584.176 897.336 L 574.343 898.502 C 568.444 885.106 562.582 872.788 550.307 864.038 C 533.366 851.962 512.436 852.087 492.759 855.064 C 487.789 817.796 480.861 780.782 475.095 743.629 L 450.632 578.607 C 449.036 567.876 439.376 514.052 440.902 506.583 C 441.909 501.652 464.312 494.064 471.874 487.768 C 489.075 473.448 491.213 454.379 493.366 433.656 C 495.245 430.747 497.613 428.289 499.932 425.734 L 969.999 358.38 z"/>
<path transform="translate(0,0)" fill="rgb(24,24,23)" d="M 758.707 423.755 C 877.436 413.062 982.369 500.607 993.125 619.331 C 1003.88 738.055 916.391 843.034 797.673 853.853 C 678.866 864.679 573.792 777.11 563.028 658.297 C 552.264 539.485 639.889 434.457 758.707 423.755 z"/>
<path transform="translate(0,0)" fill="rgb(255,255,255)" d="M 766.554 437.747 C 877 431.539 971.598 515.972 977.932 626.411 C 984.266 736.85 899.94 831.545 789.508 838.004 C 678.899 844.474 584.018 759.983 577.674 649.366 C 571.331 538.749 655.93 443.965 766.554 437.747 z"/>
<path transform="translate(0,0)" fill="rgb(24,24,23)" d="M 775.606 459.418 C 810.642 457.464 849.699 468.834 878.792 488.302 C 917.373 514.118 946.196 554.713 955.244 600.513 C 962.623 637.864 955.342 681.519 934.038 713.349 C 947.153 679.164 951.225 646.389 944.687 610.175 L 944.03 608.583 C 938.706 607.297 872.334 630.525 861.259 634.564 C 860.402 626.791 859.394 618.967 857.239 611.433 C 849.607 584.749 834.554 571.222 810.913 558.263 C 820.461 534.416 832.435 510.777 843.165 487.392 C 811.058 471.405 777.078 462.939 741.193 468.374 C 732.65 469.667 721.056 474.783 713.267 474.551 C 732.025 464.691 754.744 461.048 775.606 459.418 z"/>
<path transform="translate(0,0)" fill="rgb(24,24,23)" d="M 628.539 552.817 C 629.197 557.609 622.047 569.099 620.225 574.159 C 602.035 624.657 605.821 658.764 627.94 706.34 C 627.643 688.404 628.54 669.396 631.449 651.696 C 639.895 662.904 648.298 672.939 659.417 681.593 C 662.632 672.362 665.961 663.255 669.662 654.203 C 699.902 694.335 712.461 707.538 760.018 726.248 C 756.099 727.18 752.119 727.928 748.175 728.757 C 741.486 752.503 731.713 775.36 724.946 799.149 C 751.999 807.758 776.887 812.134 805.307 808.667 C 818.97 806.991 834.304 803.538 846.765 797.539 C 855.358 793.402 863.71 788.267 872.558 784.729 L 872.348 785.793 L 871.356 785.141 L 871.68 786.266 C 850.723 800.404 828.022 810.786 803.283 816.189 C 760.788 825.832 716.197 817.632 679.912 793.503 C 641.606 768.462 613.923 726.289 604.622 681.65 C 595.567 637.229 604.144 591.028 628.539 552.817 z"/>
<path transform="translate(0,0)" fill="rgb(24,24,23)" d="M 771.475 582.804 C 801.419 578.577 829.074 599.55 833.081 629.524 C 837.087 659.498 815.911 686.998 785.908 690.784 C 756.216 694.531 729.063 673.621 725.098 643.958 C 721.132 614.294 741.841 586.987 771.475 582.804 z"/>
<path transform="translate(0,0)" fill="rgb(255,255,255)" d="M 771.715 594.418 C 794.554 590.034 816.619 605.008 820.982 627.851 C 825.345 650.694 810.351 672.745 787.504 677.087 C 764.686 681.424 742.669 666.454 738.312 643.64 C 733.955 620.826 748.905 598.796 771.715 594.418 z"/>
<path transform="translate(0,0)" fill="rgb(24,24,23)" d="M 774.237 617.362 C 784.027 614.273 794.459 619.754 797.468 629.569 C 800.477 639.384 794.91 649.77 785.071 652.698 C 775.346 655.593 765.105 650.104 762.131 640.403 C 759.156 630.702 764.56 620.416 774.237 617.362 z"/>
<path transform="translate(0,0)" fill="rgb(255,255,255)" d="M 1364.49 433.439 C 1369.1 433.173 1374.16 434.405 1378.46 435.975 C 1394.53 441.833 1409.85 455.013 1417.19 470.426 C 1403.04 473.255 1388.42 474.527 1374.09 476.052 C 1378.91 488.591 1384.79 500.844 1390.03 513.225 C 1397.17 530.099 1403.65 547.245 1410.71 564.154 C 1418.38 582.541 1426.64 600.559 1433.79 619.187 C 1460.04 616.132 1486.49 614.066 1512.8 611.611 C 1531.43 609.872 1550.46 607.215 1569.17 607.019 C 1578.3 616.572 1580.74 628.553 1583.87 640.962 C 1565.48 646.404 1546.44 650.995 1527.71 655.161 C 1518.22 657.274 1505.38 658.327 1496.6 662.352 C 1494 663.545 1493.78 664.199 1492.63 666.639 C 1493.06 669.523 1493.21 670.09 1494.98 672.38 C 1504.26 674.426 1572.13 657.14 1586.67 654.021 C 1586.88 660.153 1587.31 666.258 1587.76 672.376 C 1572.27 675.854 1554.89 678.759 1540.22 684.841 C 1536.72 686.291 1535.47 687.639 1534.03 691.096 C 1534.18 694.004 1534.09 694.192 1535.96 696.397 C 1548.69 700.797 1572.89 683.994 1586.8 685.393 C 1588.11 685.525 1588.32 686.474 1589.04 687.456 C 1587.32 690.978 1578.46 694.942 1574.88 697.598 C 1568.32 702.455 1564.01 712.498 1563.07 720.414 C 1561.81 730.919 1565.62 741.376 1572.44 749.33 C 1581.36 759.728 1591.49 762.867 1604.57 763.98 C 1606.73 781.383 1610.99 798.557 1613.79 815.885 C 1601 817.527 1587.75 819.768 1574.87 820.153 L 1573.36 818.373 C 1567.78 811.007 1561.8 804.004 1555.09 797.636 C 1528.3 772.2 1489.04 757.842 1452.14 759.108 C 1417.76 760.192 1385.2 774.824 1361.56 799.813 C 1334.01 802.119 1306.49 806.377 1279.07 809.869 L 1178.37 822.221 C 1170.26 788.168 1166.66 752.3 1161.26 717.716 C 1152.18 659.581 1142.56 601.412 1134.25 543.17 C 1132.39 530.144 1125.26 492.604 1126.53 481.11 C 1126.92 477.589 1128.76 474.399 1130.91 471.654 C 1133.12 468.834 1135.36 466.471 1138.86 465.403 C 1157.33 459.758 1183.25 458.605 1202.87 455.73 C 1256.59 447.858 1310.5 439.039 1364.49 433.439 z"/>
<path transform="translate(0,0)" fill="rgb(24,24,23)" d="M 1302.25 490.393 C 1303.85 490.212 1302.96 490.128 1304.85 491.057 C 1308.2 498.862 1309.1 519.755 1310.52 529.151 C 1315.59 562.734 1320.35 597.081 1327.59 630.258 C 1281.95 636.513 1235.17 639.763 1189.24 643.567 C 1186.72 643.785 1186.13 644.282 1183.89 642.923 C 1180.01 629.343 1179.3 613.558 1177.28 599.479 C 1173.06 569.818 1168.58 540.193 1163.85 510.61 C 1179.17 506.11 1197.1 505.133 1213.01 502.919 L 1302.25 490.393 z"/>
<path transform="translate(0,0)" fill="rgb(24,24,23)" d="M 1443.64 697.333 L 1446.47 697.226 C 1450.58 700.809 1451.36 718.619 1452.36 724.468 C 1423.45 726.672 1394.68 730.489 1365.72 732.603 C 1356.35 750.945 1348.42 769.999 1338.61 788.121 C 1342.39 770.021 1346.47 751.985 1350.85 734.02 L 1257.24 741.776 C 1236.46 743.398 1213.88 746.492 1193.1 745.783 L 1192.73 744.843 C 1194.81 742.598 1197.5 741.884 1200.37 741.098 C 1234.63 731.731 1270.55 727.268 1305.54 721.387 L 1443.64 697.333 z"/>
<path transform="translate(0,0)" fill="rgb(24,24,23)" d="M 1345.08 480.425 C 1347.16 481.121 1347.7 481.268 1348.98 483.071 C 1355.33 492.041 1364.6 518.227 1369.54 529.468 C 1382.23 558.377 1397.47 587.348 1407.93 617.117 C 1408.44 618.59 1408.54 619.477 1408.29 621.005 L 1406.06 621.714 C 1394.22 622.453 1382.38 624.278 1370.54 625.282 C 1364.62 593.779 1358.52 562.313 1352.22 530.885 C 1349.31 516.625 1344.23 500.724 1343.39 486.353 C 1343.24 483.683 1343.88 482.737 1345.08 480.425 z"/>
<path transform="translate(0,0)" fill="rgb(24,24,23)" d="M 1316.98 486.926 C 1319.71 486.762 1321.98 486.428 1324.51 487.698 L 1337.27 574.677 C 1340 592.639 1343.28 610.673 1345.23 628.723 C 1342.13 629.02 1339.22 629.559 1336.21 628.529 C 1332.49 617.851 1332.41 603.553 1330.76 592.138 C 1327.48 569.662 1324.32 547.168 1321.28 524.66 C 1319.6 512.293 1316.98 499.414 1316.98 486.926 z"/>
<path transform="translate(0,0)" fill="rgb(24,24,23)" d="M 1211.55 672.587 C 1219.63 671.819 1228.12 670.241 1235.07 675.562 C 1237.58 677.483 1239.57 680.433 1239.77 683.66 C 1239.94 686.451 1238.75 689.304 1236.97 691.408 C 1231.27 698.166 1221.84 698.164 1213.76 699.006 C 1206.52 700.359 1199.4 701.992 1192.94 697.534 C 1189.72 695.311 1187.59 692.023 1187.09 688.123 C 1186.65 684.723 1187.64 681.291 1189.84 678.657 C 1194.97 672.521 1204.29 672.987 1211.55 672.587 z"/>
<path transform="translate(0,0)" fill="rgb(255,255,255)" d="M 1462.07 801.726 C 1512.28 798.548 1555.62 836.551 1559.03 886.748 C 1562.43 936.945 1524.63 980.456 1474.45 984.092 C 1423.94 987.753 1380.09 949.649 1376.66 899.127 C 1373.23 848.604 1411.53 804.924 1462.07 801.726 z"/>
<path transform="translate(0,0)" fill="rgb(24,24,23)" d="M 1463.21 842.358 C 1491.57 840.492 1516.17 861.747 1518.44 890.075 C 1520.71 918.404 1499.81 943.303 1471.51 945.975 C 1452.85 947.738 1434.68 939.314 1423.97 923.929 C 1413.26 908.545 1411.66 888.584 1419.79 871.691 C 1427.91 854.797 1444.51 843.589 1463.21 842.358 z"/>
<path transform="translate(0,0)" fill="rgb(255,255,255)" d="M 1459.14 853.691 C 1481.33 849.5 1502.77 863.925 1507.25 886.062 C 1511.73 908.198 1497.58 929.824 1475.51 934.591 C 1460.97 937.731 1445.87 932.805 1435.97 921.698 C 1426.08 910.591 1422.93 895.02 1427.73 880.941 C 1432.52 866.861 1444.52 856.451 1459.14 853.691 z"/>
<path transform="translate(0,0)" fill="rgb(24,24,23)" d="M 1462.13 869.559 C 1471.05 867.901 1480.17 871.184 1485.99 878.148 C 1491.8 885.111 1493.41 894.671 1490.19 903.152 C 1486.96 911.633 1479.42 917.715 1470.45 919.061 C 1456.9 921.092 1444.23 911.897 1441.97 898.394 C 1439.7 884.89 1448.67 872.061 1462.13 869.559 z"/>
<path transform="translate(0,0)" fill="rgb(255,255,255)" d="M 1329.39 821.496 L 1330.17 821.427 L 1331.27 822.478 C 1330.35 829.338 1327.83 836.119 1325.78 842.728 C 1211.24 859.481 1095.83 871.833 980.984 886.495 C 880.708 900.233 780.29 912.918 679.748 924.55 L 583.552 936.316 C 566.971 938.312 550.017 941.214 533.364 942.048 C 529.475 942.242 526.129 941.927 522.364 940.945 C 519.941 938.779 516.706 935.455 516.453 932.002 C 516.259 929.342 516.859 927.786 518.585 925.797 C 522.063 921.788 530.351 919.95 535.378 919.186 C 563.456 914.914 592.402 913.126 620.655 909.861 L 819.489 885.752 L 1142.24 844.07 C 1204.47 836.174 1266.94 827.385 1329.39 821.496 z"/>
<path transform="translate(0,0)" fill="rgb(255,255,255)" d="M 644.458 951.791 C 682.609 948.312 716.326 976.493 719.671 1014.66 C 723.016 1052.82 694.717 1086.44 656.543 1089.65 C 618.557 1092.84 585.142 1064.71 581.813 1026.74 C 578.484 988.767 606.496 955.253 644.458 951.791 z"/>
<path transform="translate(0,0)" fill="rgb(24,24,23)" d="M 644.168 983.819 C 664.538 979.989 684.214 993.211 688.364 1013.52 C 692.515 1033.83 679.604 1053.71 659.364 1058.18 C 645.985 1061.13 632.052 1056.65 622.911 1046.44 C 613.769 1036.23 610.838 1021.89 615.242 1008.92 C 619.647 995.944 630.702 986.351 644.168 983.819 z"/>
<path transform="translate(0,0)" fill="rgb(255,255,255)" d="M 646 991.741 C 662.051 988.958 677.381 999.522 680.495 1015.51 C 683.609 1031.5 673.364 1047.05 657.441 1050.49 C 646.845 1052.78 635.838 1049.16 628.667 1041.03 C 621.495 1032.9 619.281 1021.53 622.877 1011.3 C 626.473 1001.08 635.318 993.594 646 991.741 z"/>
<path transform="translate(0,0)" fill="rgb(24,24,23)" d="M 646.85 1003.64 C 656.57 1001.26 666.379 1007.21 668.763 1016.93 C 671.147 1026.65 665.204 1036.46 655.486 1038.85 C 645.761 1041.24 635.939 1035.3 633.553 1025.57 C 631.167 1015.84 637.121 1006.02 646.85 1003.64 z"/>
<path transform="translate(0,0)" fill="rgb(255,255,255)" d="M 812.042 929.944 C 849.592 924.602 884.376 950.673 889.786 988.213 C 895.196 1025.75 869.188 1060.58 831.658 1066.06 C 794.031 1071.56 759.09 1045.47 753.666 1007.83 C 748.243 970.192 774.396 935.299 812.042 929.944 z"/>
<path transform="translate(0,0)" fill="rgb(24,24,23)" d="M 811.974 959.872 C 832.566 954.572 853.532 967.068 858.667 987.703 C 863.801 1008.34 851.136 1029.2 830.461 1034.17 C 810.021 1039.08 789.444 1026.59 784.367 1006.19 C 779.291 985.79 791.615 965.113 811.974 959.872 z"/>
<path transform="translate(0,0)" fill="rgb(255,255,255)" d="M 817.164 965.873 C 833.874 963.792 849.147 975.543 851.419 992.227 C 853.692 1008.91 842.118 1024.32 825.461 1026.78 C 814.514 1028.4 803.541 1024.01 796.731 1015.29 C 789.922 1006.57 788.327 994.858 792.555 984.631 C 796.783 974.404 806.182 967.24 817.164 965.873 z"/>
<path transform="translate(0,0)" fill="rgb(24,24,23)" d="M 819.601 977.084 C 822.633 977.399 825.649 977.877 828.411 979.256 C 833.185 981.641 836.707 986.411 838.169 991.474 C 839.633 996.512 839.018 1001.93 836.463 1006.51 C 833.293 1012.09 828.958 1013.71 823.047 1015.4 C 819.603 1015.09 816.31 1014.76 813.14 1013.27 C 808.339 1011.03 804.692 1006.88 803.077 1001.83 C 801.461 996.82 802.136 991.446 804.755 986.9 C 808.177 980.963 813.244 978.782 819.601 977.084 z"/>
<path transform="translate(0,0)" fill="rgb(255,255,255)" d="M 1248.7 940.406 C 1270.55 937.596 1336.51 951.933 1363.5 954.915 C 1319.06 962.75 1273.88 968.068 1229.13 973.967 C 1155.59 983.553 1082.14 993.722 1008.76 1004.47 C 974.885 1008.17 941.076 1014.19 907.241 1018.54 C 910.71 1007.01 912.682 995.794 914.099 983.832 C 961.067 976.246 1008.69 971.403 1055.87 965.233 C 1120.1 956.835 1184.33 947.519 1248.7 940.406 z"/>
<path transform="translate(0,0)" fill="rgb(255,255,255)" d="M 1277.14 871.4 C 1279.36 871.075 1279.96 870.935 1282.03 871.707 C 1282.54 872.649 1282.91 873.185 1283.11 874.324 C 1284.06 879.898 1279.5 891.236 1276.38 895.674 C 1272.94 900.583 1268.01 904.26 1262.19 905.792 C 1250.54 908.857 1237.97 909.816 1226.02 911.314 L 1158.89 919.086 L 999.719 937.993 C 968.998 941.668 937.985 944.644 907.425 949.45 C 905.695 946.226 903.497 943.205 901.468 940.162 C 895.835 933.219 889.218 926.898 883.015 920.456 C 1014.01 901.399 1145.95 888.95 1277.14 871.4 z"/>
<path transform="translate(0,0)" fill="rgb(255,255,255)" d="M 1649.16 834.359 C 1649.6 834.28 1650.03 834.181 1650.47 834.122 C 1652.9 833.801 1654.46 833.425 1656.42 834.942 C 1660.08 851.309 1660.46 869.148 1662.17 885.875 L 1596.23 894.718 C 1594.11 895.069 1592.58 895.005 1590.46 894.661 C 1586.53 887.037 1583.99 853.619 1582.58 842.875 C 1604.67 839.63 1627.01 837.366 1649.16 834.359 z"/>
<path transform="translate(0,0)" fill="rgb(255,255,255)" d="M 445.789 431.37 C 452.444 430.544 459.124 430.779 465.814 430.859 C 470.441 439.388 472.879 448.093 475.007 457.51 C 468.475 467.657 462.374 475.873 451.862 482.227 C 447.812 483.646 441.96 485.477 437.719 483.818 C 434.03 482.376 431.418 479.537 429.68 476.034 C 425.36 467.33 422.134 446.607 425.422 437.497 C 430.848 432.469 438.774 432.421 445.789 431.37 z"/>
<path transform="translate(0,0)" fill="rgb(255,255,255)" d="M 1032.18 349.404 C 1037.46 348.813 1043.49 347.512 1048.17 350.695 C 1057.52 357.05 1058.65 389.663 1060.47 401.283 C 1050.61 399.307 1041.78 396.153 1032.66 391.969 C 1032.39 391.843 1032.12 391.722 1031.85 391.592 C 1015.51 383.547 1001.63 372.401 995.612 354.643 C 1007.54 351.824 1020.01 350.747 1032.18 349.404 z"/>
<path transform="translate(0,0)" fill="rgb(255,255,255)" d="M 515.048 871.43 C 521.69 871.304 528.88 871.872 534.887 874.945 C 546.193 880.729 549.495 893.485 552.826 904.705 C 544.146 906.26 535.715 908.022 527.241 910.474 C 521.92 912.158 516.024 914.471 510.467 914.954 C 506.722 915.28 503.216 914.421 500.412 911.826 C 493.596 905.516 495.143 882.067 494.771 873.17 C 501.462 872.211 508.306 871.92 515.048 871.43 z"/>
<path transform="translate(0,0)" fill="rgb(255,255,255)" d="M 1118.89 786.206 C 1121.39 788.923 1126.03 823.405 1127.49 830.5 C 1110.7 832.194 1093.94 835.079 1077.23 837.484 L 1072.89 838.21 C 1071.53 837.488 1070.83 837.604 1070.45 835.947 C 1069.08 829.858 1073.79 821.582 1076.87 816.443 C 1086.41 800.539 1101.07 790.601 1118.89 786.206 z"/>
<path transform="translate(0,0)" fill="rgb(255,255,255)" d="M 1595.21 698.046 C 1597.83 698.001 1600.69 697.887 1603.22 698.665 C 1608.97 700.435 1613.09 705.803 1615.43 711.111 C 1619.31 719.917 1620.82 732.487 1616.96 741.542 C 1614.58 747.153 1611.19 749.467 1605.63 751.494 C 1597.97 749.326 1591.88 746.149 1586.94 739.697 C 1582.22 733.535 1580.13 725.812 1581.41 718.129 C 1582.86 709.369 1588.05 702.93 1595.21 698.046 z"/>
<path transform="translate(0,0)" fill="rgb(255,255,255)" d="M 768.702 935.461 L 770.567 935.267 C 770.582 937.2 761.321 944.344 759.556 946.386 C 756.038 950.458 753.771 954.939 751.562 959.775 C 741.177 959.964 720.444 962.799 712.036 961.317 C 708.691 960.728 708.225 959.103 706.394 956.551 C 703.258 952.313 699.763 948.426 696.264 944.49 L 768.702 935.461 z"/>
<path transform="translate(0,0)" fill="rgb(255,255,255)" d="M 559.36 958.414 C 561.995 958.094 565.893 957.484 568.36 958.582 C 572.436 960.396 574.283 966.595 575.926 970.391 C 575.232 975.085 574.839 981.141 571.801 984.965 C 568.337 989.326 563.153 989.24 558.108 989.601 C 553.729 989.831 549.684 990.636 546.031 987.71 C 539.697 982.636 541.02 967.758 540.771 960.26 C 546.94 959.461 553.166 958.989 559.36 958.414 z"/>
<path transform="translate(0,0)" fill="rgb(24,24,23)" d="M 1754.75 979.412 C 1754.99 979.363 1755.22 979.29 1755.46 979.264 C 1757.94 978.992 1759.53 978.692 1761.46 980.308 C 1763.89 996.717 1763.03 1014.55 1763.02 1031.12 C 1762.93 1138.84 1736.46 1254.7 1688.74 1351.34 C 1603.76 1527.15 1452.42 1661.99 1268.01 1726.21 C 1104.9 1781.44 927.855 1779.48 766.011 1720.67 C 725.348 1705.71 687.946 1685.91 649.238 1666.81 C 629.126 1670.87 608.316 1673.1 588.021 1676.29 C 556.34 1681.26 524.76 1686.82 493.026 1691.47 C 482.178 1680.3 468.698 1671.11 457.059 1660.63 C 433.848 1639.59 411.549 1617.57 390.224 1594.62 C 283.885 1477.69 212.852 1333.02 185.354 1177.37 L 1117.02 1058.84 C 1329.3 1030.03 1541.89 1003.56 1754.75 979.412 z"/>
<path transform="translate(0,0)" fill="rgb(255,255,255)" d="M 863.31 1169.8 C 896.344 1168.94 958.529 1166.11 986.373 1179.63 C 1001.15 1186.81 1012.3 1199.16 1017.49 1214.81 C 1022.95 1231.28 1022.49 1250.98 1014.42 1266.54 C 1004.8 1285.09 988.618 1291.96 969.799 1297.68 C 978.171 1305.57 985.253 1315.52 992.451 1324.48 C 1010.23 1346.63 1026.92 1369.72 1044.96 1391.64 C 1072.33 1317.19 1102.49 1243.5 1131.95 1169.85 L 1180.09 1169.65 C 1187.81 1186.69 1193.82 1204.39 1200.6 1221.81 L 1231.43 1300.25 C 1243.45 1332.14 1255.98 1363.83 1269.02 1395.32 L 1211.44 1395.47 C 1205.35 1380.37 1199.63 1365.12 1194.28 1349.75 C 1167.77 1349.89 1141.26 1349.77 1114.75 1349.38 C 1110.08 1365.18 1103.9 1380.57 1098.18 1396.01 C 1082.85 1396.06 1067.5 1395.21 1052.16 1395.09 C 1029.87 1394.9 1007.52 1395.31 985.224 1395.5 C 960.555 1365.44 939.452 1332.56 916.056 1301.53 C 915.636 1332.66 916.41 1363.88 916.439 1395.02 L 863.412 1395.29 L 863.31 1169.8 z"/>
<path transform="translate(0,0)" fill="rgb(24,24,23)" d="M 915.977 1210.76 C 929.749 1210.46 946.346 1209.92 957.382 1219.66 C 962.99 1224.61 965.603 1231.46 966.03 1238.82 C 966.626 1249.08 964.393 1256.51 957.731 1264.28 C 946.058 1274.18 930.434 1273.08 916.098 1273.31 C 916.237 1252.46 916.197 1231.61 915.977 1210.76 z"/>
<path transform="translate(0,0)" fill="rgb(24,24,23)" d="M 1155.19 1241.62 C 1160.76 1250.36 1175.29 1296.08 1179.44 1308.72 L 1155.04 1308.8 L 1130.65 1308.8 C 1137.2 1286.41 1145.87 1263.02 1155.19 1241.62 z"/>
<path transform="translate(0,0)" fill="rgb(255,255,255)" d="M 1368.85 1169.98 C 1421.06 1169.8 1481.46 1162.84 1522.28 1202.16 C 1544.54 1223.6 1553.74 1252.19 1554.27 1282.58 C 1554.82 1314.11 1544.76 1341.04 1522.91 1363.72 C 1483.41 1402.6 1419.73 1395.18 1368.89 1394.79 L 1368.85 1169.98 z"/>
<path transform="translate(0,0)" fill="rgb(24,24,23)" d="M 1422.75 1214.2 C 1441.59 1213.82 1460.65 1214.97 1476.02 1227.22 C 1489.97 1238.33 1496.29 1254.54 1498.24 1271.76 C 1500.75 1293.91 1495.41 1315.54 1481.52 1333.05 C 1481.06 1333.52 1480.6 1334 1480.14 1334.46 C 1464.08 1350.46 1444.32 1352.16 1422.93 1352.29 L 1422.75 1214.2 z"/>
<path transform="translate(0,0)" fill="rgb(255,255,255)" d="M 659.559 1169.55 C 668.613 1169.19 677.694 1169.13 686.755 1168.95 C 705.267 1196.26 723.524 1223.74 741.522 1251.39 C 754.138 1270.66 767.831 1289.81 778.297 1310.34 C 778.768 1263.42 778.706 1216.49 778.11 1169.58 C 795.549 1169.01 813.059 1169.46 830.506 1169.61 L 830.901 1396.06 L 821.25 1396.14 C 808.775 1396.17 796.3 1396.11 783.825 1395.99 C 753.794 1350.53 722.677 1305.4 694.297 1258.92 C 693.51 1304.59 694.039 1350.38 693.898 1396.07 C 677.274 1395.89 660.633 1396.05 644.007 1396.05 L 644.038 1169.94 L 659.559 1169.55 z"/>
<path transform="translate(0,0)" fill="rgb(255,255,255)" d="M 595.213 1169.49 L 612.238 1169.57 L 612.256 1254.35 C 612.377 1290.59 619.96 1347.78 592.552 1376.02 C 575.559 1393.53 549.484 1399.88 525.831 1400.21 C 501.24 1400.55 472.568 1395.27 454.383 1377.36 C 429.919 1353.26 432.421 1316.84 432.527 1285.34 L 432.311 1237.25 C 432.109 1214.79 432.179 1192.33 432.521 1169.87 L 486.076 1169.79 C 486.398 1201.87 486.056 1233.98 486.055 1266.07 C 486.055 1284.74 484.657 1305.02 487.964 1323.42 C 489.354 1331.15 491.966 1338.54 497.358 1344.42 C 503.479 1351.1 512.172 1354.44 521.134 1354.66 C 531.279 1354.91 542.879 1352.48 550.149 1344.97 C 555.524 1339.41 557.463 1331.49 558.604 1324.05 C 561.336 1306.24 559.745 1287.12 559.739 1269.08 L 559.79 1169.6 L 595.213 1169.49 z"/>
<path transform="translate(0,0)" fill="rgb(255,255,255)" d="M 1285.09 1169.3 C 1302.5 1169.74 1319.91 1169.91 1337.32 1169.81 C 1337.12 1192.14 1338.58 1390.24 1337.14 1393.5 C 1336.88 1394.09 1336.34 1394.49 1335.94 1394.99 C 1318.75 1394.88 1301.52 1395.6 1284.33 1395.76 C 1284.02 1364.71 1284.78 1333.58 1284.84 1302.52 C 1284.92 1258.12 1284.47 1213.69 1285.09 1169.3 z"/>
<path transform="translate(0,0)" fill="rgb(255,255,255)" d="M 627.578 1451.99 C 656.872 1448.3 683.617 1469.03 687.357 1498.32 C 691.097 1527.6 670.419 1554.39 641.14 1558.19 C 611.781 1561.99 584.906 1541.25 581.156 1511.88 C 577.406 1482.51 598.204 1455.68 627.578 1451.99 z"/>
<path transform="translate(0,0)" fill="rgb(24,24,23)" d="M 627.165 1476.18 C 632.886 1475.58 637.746 1475.33 643.209 1477.41 C 649.822 1479.91 655.146 1484.97 657.979 1491.45 C 661.404 1499.22 661.636 1508.69 658.522 1516.61 C 655.031 1525.49 649.447 1529.84 640.934 1533.55 C 634.813 1534.51 629.037 1534.43 623.31 1531.81 C 616.399 1528.64 611.255 1522.68 608.801 1515.52 C 606.04 1507.47 606.311 1497.97 610.102 1490.28 C 613.849 1482.68 619.382 1478.95 627.165 1476.18 z"/>
<path transform="translate(0,0)" fill="rgb(255,255,255)" d="M 460.126 1454.39 C 466.308 1453.92 472.638 1454.07 478.844 1453.97 C 489.44 1474.43 501.747 1494.02 512.474 1514.43 C 524.197 1494.41 534.931 1473.88 546.925 1454 L 564.983 1454.39 C 564.869 1468.37 566.471 1482.57 567.362 1496.53 C 568.537 1516.36 569.593 1536.2 570.528 1556.04 L 547.009 1556.07 C 546.318 1550.33 546.176 1544.52 545.888 1538.75 C 545.198 1526.68 544.593 1514.61 544.072 1502.54 C 536.483 1516.3 530.009 1530.88 521.49 1544.09 C 515.808 1544.28 510.102 1544.12 504.417 1544.07 C 495.842 1529.86 488.244 1515.08 480.066 1500.64 C 480.281 1519.07 479.228 1537.59 478.896 1556.02 L 454.474 1555.97 L 460.126 1454.39 z"/>
<path transform="translate(0,0)" fill="rgb(255,255,255)" d="M 874.174 1454.03 C 891.191 1453.89 913.374 1451.26 929.318 1458.02 C 936.403 1461.02 942.286 1466.2 945.013 1473.53 C 947.943 1481.4 947.361 1490.92 943.792 1498.5 C 939.458 1507.69 933.482 1511.11 924.455 1514.55 C 935.137 1528.68 946.645 1542.24 957.928 1555.89 L 937.583 1556.04 L 927.965 1556.04 C 919.152 1541.8 909.026 1528.34 899.255 1514.75 L 899.896 1556.02 L 874.595 1556.03 L 874.174 1454.03 z"/>
<path transform="translate(0,0)" fill="rgb(24,24,23)" d="M 898.76 1472.88 C 903.482 1472.98 908.791 1473.34 913.156 1475.27 C 916.294 1476.65 919.682 1479.23 920.573 1482.7 C 921.914 1487.93 919.402 1492.19 916.701 1496.44 C 911.471 1500 904.861 1500.08 898.766 1500.65 L 898.76 1472.88 z"/>
<path transform="translate(0,0)" fill="rgb(255,255,255)" d="M 1184.83 1453.95 L 1207.14 1453.95 C 1220.22 1486.6 1237.27 1524.14 1252.7 1555.87 L 1226.04 1556.02 C 1223.77 1550.36 1221.24 1541.14 1217.29 1536.58 C 1216.09 1535.19 1214.95 1535.71 1213.25 1535.69 C 1200.7 1536.07 1188.12 1536.12 1175.57 1536.32 L 1168.14 1555.98 L 1142.08 1555.89 C 1155.27 1521.51 1170.16 1487.72 1184.83 1453.95 z"/>
<path transform="translate(0,0)" fill="rgb(24,24,23)" d="M 1196 1485.52 C 1201.11 1495.29 1204.67 1506.29 1208.64 1516.58 L 1198.25 1516.96 L 1184.01 1516.62 C 1187.37 1506.06 1191.74 1495.75 1196 1485.52 z"/>
<path transform="translate(0,0)" fill="rgb(255,255,255)" d="M 1384.05 1454.04 L 1408.8 1454.02 L 1408.77 1473.75 C 1408.52 1495.93 1414.2 1528.16 1397.26 1545.62 C 1389.55 1553.58 1378.93 1557.21 1368.01 1557.4 C 1356.32 1557.6 1344.53 1553.91 1336.14 1545.52 C 1331.68 1541.07 1328.47 1535.53 1326.82 1529.45 C 1322.37 1513.44 1324.91 1472.66 1324.99 1454.02 L 1348.63 1454.02 C 1348.54 1469.77 1344.72 1517.5 1354.03 1528.79 C 1357.32 1532.77 1362.2 1534.95 1367.31 1535.21 C 1371.42 1535.42 1375.12 1534.26 1378.01 1531.26 C 1381.29 1527.88 1382.85 1523.08 1383.64 1518.54 C 1386.2 1503.72 1384.13 1470.64 1384.05 1454.04 z"/>
<path transform="translate(0,0)" fill="rgb(255,255,255)" d="M 766.336 1454.03 L 793.061 1454.17 L 782.623 1480.76 C 773.071 1505.89 761.689 1530.5 753.232 1556.01 L 727.921 1556.07 C 723.021 1543.9 687.342 1460.06 688.922 1454.49 C 697.633 1454.07 706.43 1454.21 715.154 1454.13 C 722.562 1477.85 732.893 1500.52 740.133 1524.35 C 750.211 1501.84 757.68 1477.21 766.336 1454.03 z"/>
<path transform="translate(0,0)" fill="rgb(255,255,255)" d="M 1454.74 1452.3 C 1468.04 1450.92 1479.85 1455.1 1491.74 1460.47 L 1482.17 1477.09 C 1478.17 1475.36 1474.18 1473.63 1469.92 1472.65 C 1463.99 1471.28 1457.32 1470.15 1451.97 1473.78 C 1449.29 1475.61 1447.8 1477.4 1447.17 1480.63 C 1449.88 1490.84 1477.55 1495.77 1486.71 1503.75 C 1491.95 1508.32 1495.42 1514.46 1495.61 1521.49 C 1495.9 1531.67 1493.84 1540.49 1486.35 1547.77 C 1477.06 1556.79 1464.92 1557.06 1452.8 1556.86 C 1439.32 1555.05 1428.81 1549.65 1416.89 1543.6 C 1422.48 1537.97 1426.2 1531.51 1429.99 1524.61 C 1435.79 1530.63 1442.31 1533.31 1450.53 1534.75 C 1456.61 1535.81 1463.34 1536.19 1468.6 1532.55 C 1470.04 1529.97 1470.56 1528.29 1469.64 1525.38 C 1465.82 1513.24 1443.99 1511.73 1433.88 1505.66 C 1428.58 1502.48 1424.45 1498.1 1423.04 1491.95 C 1421.15 1483.69 1423.52 1472.35 1428.42 1465.44 C 1434.69 1456.62 1444.59 1453.81 1454.74 1452.3 z"/>
<path transform="translate(0,0)" fill="rgb(255,255,255)" d="M 799.041 1454.02 L 858.84 1454.01 L 858.847 1474.03 L 824.582 1474.07 C 824.216 1480.91 824.384 1487.85 824.338 1494.7 L 859.008 1494.68 L 859.006 1514.92 C 851.334 1515 831.028 1512.15 825.193 1516.63 L 824.834 1520.75 L 824.824 1535.64 L 859.976 1535.84 L 859.905 1555.47 C 839.689 1555.89 819.418 1555.77 799.195 1555.91 L 799.041 1454.02 z"/>
<path transform="translate(0,0)" fill="rgb(255,255,255)" d="M 1032.31 1452.35 C 1043.59 1451.61 1053.57 1455.26 1063.89 1459.29 C 1061.99 1465.87 1060.87 1472.53 1059.7 1479.27 C 1057.66 1477.95 1055.61 1476.96 1053.35 1476.03 C 1046.78 1473.34 1034.22 1470.14 1027.51 1473.85 C 1024.34 1475.6 1023.11 1477.51 1022.28 1480.95 C 1024.89 1490.68 1052.97 1497.22 1062.01 1505.15 C 1067.31 1509.79 1071.02 1515.97 1071.16 1523.15 C 1071.32 1531.6 1066.58 1540.62 1060.77 1546.53 C 1050.68 1556.81 1037.49 1557.28 1024.05 1557.05 C 1013.39 1555.37 1004.5 1551.83 995.138 1546.57 C 997.882 1539.03 1001.42 1531.83 1004.84 1524.58 C 1010.49 1529.99 1017.12 1534.65 1024.91 1536.26 C 1030.66 1537.44 1037.38 1537.26 1042.25 1533.62 C 1044.76 1531.74 1045.46 1530.22 1045.87 1527.17 C 1041.54 1516.38 1020.77 1512.56 1011.55 1506.05 C 1005.1 1501.49 1000.13 1495.15 999.004 1487.16 C 997.956 1479.69 1000.6 1471.23 1005.23 1465.34 C 1011.94 1456.79 1021.98 1453.66 1032.31 1452.35 z"/>
<path transform="translate(0,0)" fill="rgb(255,255,255)" d="M 1072.01 1454.07 L 1150.67 1453.98 L 1150.71 1474.22 L 1123.85 1474.13 C 1123.71 1492.97 1124.36 1511.83 1124.73 1530.66 L 1124.88 1555.6 L 1099.67 1555.89 L 1099.46 1474.39 C 1090.45 1473.66 1081.21 1474.06 1072.17 1474.06 L 1072.01 1454.07 z"/>
<path transform="translate(0,0)" fill="rgb(255,255,255)" d="M 1239.1 1454.02 L 1317.56 1454.04 C 1317.87 1460.77 1317.86 1467.53 1317.99 1474.26 L 1290.92 1474.22 L 1290.89 1529.5 L 1290.85 1555.71 L 1265.67 1555.96 L 1265.89 1474.37 L 1239.05 1474.26 L 1239.1 1454.02 z"/>
<path transform="translate(0,0)" fill="rgb(251,113,25)" d="M 436.787 412.501 C 452.207 395.946 470.396 380.835 487.826 366.441 C 581.187 289.734 689.877 233.886 806.6 202.644 C 1025.34 144.402 1258.28 176.068 1453.54 290.587 C 1648.65 405.044 1790.13 592.511 1846.69 811.533 C 1895.67 1001.45 1877.56 1202.46 1795.43 1380.57 C 1785.3 1402.44 1775.01 1424.26 1762.8 1445.07 C 1743.9 1477.28 1724.05 1509.31 1701.47 1539.09 C 1588.43 1688.07 1429.08 1795.24 1248.48 1843.77 C 1022.84 1904.24 782.345 1870.97 581.596 1751.52 C 592.605 1741.64 605.559 1732.79 617.662 1724.22 C 713.93 1784.96 850.243 1823.98 963.403 1831.88 C 1109.87 1843.4 1256.7 1814.63 1387.98 1748.67 C 1445.37 1720.17 1500.79 1684.53 1549.21 1642.47 C 1716.13 1500.15 1818.47 1296.42 1832.99 1077.55 C 1845.82 865.599 1775.74 656.966 1637.56 495.746 C 1497.1 333.099 1297.93 232.709 1083.64 216.541 C 1056.73 214.758 1029.56 213.345 1002.59 214.034 C 860.318 218.195 721.685 259.987 600.814 335.154 C 570.368 354.152 539.797 374.755 512.746 398.406 C 497.799 400.537 482.92 403.118 468.129 406.146 C 457.849 408.255 447.155 411.29 436.787 412.501 z"/>
<path transform="translate(0,0)" fill="rgb(251,113,25)" d="M 184.23 1144.46 C 181.12 1119.6 178.679 1094.66 176.911 1069.66 C 164.769 894.878 214.184 713.112 309.931 566.701 C 338.018 523.751 370.345 485.605 403.951 447.013 C 406.31 464.256 408.497 481.522 410.512 498.809 C 399.131 510.645 386.301 528.544 376.149 542.031 C 271.369 681.722 214.956 851.749 215.451 1026.37 C 215.707 1064.83 219.593 1102.05 224.924 1140.06 C 211.325 1141.18 197.755 1142.65 184.23 1144.46 z"/>
</svg>